<mxfile host="app.diagrams.net" agent="Mozilla/5.0 (Macintosh; Intel Mac OS X 10_15_7) AppleWebKit/605.1.15 (KHTML, like Gecko) Version/18.1.1 Safari/605.1.15" version="25.0.3">
  <diagram name="Page-1" id="JYdTF-gxQg0Iv9MPzBLV">
    <mxGraphModel dx="3052" dy="4302" grid="1" gridSize="10" guides="1" tooltips="1" connect="1" arrows="1" fold="1" page="1" pageScale="1" pageWidth="827" pageHeight="1169" math="0" shadow="0">
      <root>
        <mxCell id="0" />
        <mxCell id="1" parent="0" />
        <mxCell id="2" value="Andrea Onyango" style="whiteSpace=wrap;strokeWidth=2;" parent="1" vertex="1">
          <mxGeometry x="2420" y="-2150" width="89" height="49" as="geometry" />
        </mxCell>
        <mxCell id="3" value="Cicilia" style="whiteSpace=wrap;strokeWidth=2;" parent="1" vertex="1">
          <mxGeometry x="990" y="-1780" width="90" height="49" as="geometry" />
        </mxCell>
        <mxCell id="5" value="Joseph Ombimah Onyango" style="whiteSpace=wrap;strokeWidth=2;" parent="1" vertex="1">
          <mxGeometry x="-200" y="130" width="82" height="44" as="geometry" />
        </mxCell>
        <mxCell id="6" value="Francis Obonyo" style="whiteSpace=wrap;strokeWidth=2;" parent="1" vertex="1">
          <mxGeometry x="2990" y="130" width="75" height="44" as="geometry" />
        </mxCell>
        <mxCell id="Kyfm_cYFZnKpqrGlaWJu-15" value="Christine Abwawo" style="whiteSpace=wrap;strokeWidth=2;" vertex="1" parent="1">
          <mxGeometry x="4830" y="160" width="60" height="41.5" as="geometry" />
        </mxCell>
        <mxCell id="Kyfm_cYFZnKpqrGlaWJu-17" value="" style="endArrow=classic;html=1;rounded=0;exitX=0.5;exitY=1;exitDx=0;exitDy=0;entryX=0.5;entryY=0;entryDx=0;entryDy=0;" edge="1" parent="1" source="3" target="6">
          <mxGeometry width="50" height="50" relative="1" as="geometry">
            <mxPoint x="360" y="260" as="sourcePoint" />
            <mxPoint x="340" y="370" as="targetPoint" />
          </mxGeometry>
        </mxCell>
        <mxCell id="Kyfm_cYFZnKpqrGlaWJu-19" value="" style="endArrow=classic;html=1;rounded=0;entryX=0.5;entryY=0;entryDx=0;entryDy=0;exitX=0.5;exitY=1;exitDx=0;exitDy=0;" edge="1" parent="1" source="3" target="Kyfm_cYFZnKpqrGlaWJu-15">
          <mxGeometry width="50" height="50" relative="1" as="geometry">
            <mxPoint x="190" y="160" as="sourcePoint" />
            <mxPoint x="410" y="210" as="targetPoint" />
          </mxGeometry>
        </mxCell>
        <mxCell id="Kyfm_cYFZnKpqrGlaWJu-20" value="" style="endArrow=classic;html=1;rounded=0;entryX=0.5;entryY=0;entryDx=0;entryDy=0;exitX=0.5;exitY=1;exitDx=0;exitDy=0;" edge="1" parent="1" source="3" target="5">
          <mxGeometry width="50" height="50" relative="1" as="geometry">
            <mxPoint x="190" y="90" as="sourcePoint" />
            <mxPoint x="240" y="220" as="targetPoint" />
          </mxGeometry>
        </mxCell>
        <mxCell id="Kyfm_cYFZnKpqrGlaWJu-21" value="" style="endArrow=classic;html=1;rounded=0;exitX=0.5;exitY=1;exitDx=0;exitDy=0;entryX=0.5;entryY=0;entryDx=0;entryDy=0;" edge="1" parent="1" source="5" target="Kyfm_cYFZnKpqrGlaWJu-22">
          <mxGeometry width="50" height="50" relative="1" as="geometry">
            <mxPoint x="360" y="260" as="sourcePoint" />
            <mxPoint x="49" y="310" as="targetPoint" />
          </mxGeometry>
        </mxCell>
        <mxCell id="Kyfm_cYFZnKpqrGlaWJu-22" value="Nereah Ombimah" style="whiteSpace=wrap;strokeWidth=2;" vertex="1" parent="1">
          <mxGeometry x="-140" y="226" width="75" height="44" as="geometry" />
        </mxCell>
        <mxCell id="Kyfm_cYFZnKpqrGlaWJu-26" value="Jane Otonde" style="whiteSpace=wrap;strokeWidth=2;" vertex="1" parent="1">
          <mxGeometry x="-720" y="330" width="75" height="44" as="geometry" />
        </mxCell>
        <mxCell id="Kyfm_cYFZnKpqrGlaWJu-27" value="George Ombimah Onyango" style="whiteSpace=wrap;strokeWidth=2;" vertex="1" parent="1">
          <mxGeometry x="-480" y="330" width="75" height="44" as="geometry" />
        </mxCell>
        <mxCell id="Kyfm_cYFZnKpqrGlaWJu-28" value="Patricia Otieno" style="whiteSpace=wrap;strokeWidth=2;" vertex="1" parent="1">
          <mxGeometry x="-240" y="330" width="75" height="44" as="geometry" />
        </mxCell>
        <mxCell id="Kyfm_cYFZnKpqrGlaWJu-30" value="Alfred Ombimah" style="whiteSpace=wrap;strokeWidth=2;" vertex="1" parent="1">
          <mxGeometry x="280" y="330" width="75" height="44" as="geometry" />
        </mxCell>
        <mxCell id="Kyfm_cYFZnKpqrGlaWJu-31" value="Arthur Ombimah" style="whiteSpace=wrap;strokeWidth=2;" vertex="1" parent="1">
          <mxGeometry x="520" y="330" width="75" height="44" as="geometry" />
        </mxCell>
        <mxCell id="Kyfm_cYFZnKpqrGlaWJu-32" value="James Ombimah" style="whiteSpace=wrap;strokeWidth=2;" vertex="1" parent="1">
          <mxGeometry x="830" y="330" width="75" height="44" as="geometry" />
        </mxCell>
        <mxCell id="Kyfm_cYFZnKpqrGlaWJu-33" value="Edward Ombimah" style="whiteSpace=wrap;strokeWidth=2;" vertex="1" parent="1">
          <mxGeometry x="1080" y="330" width="75" height="44" as="geometry" />
        </mxCell>
        <mxCell id="Kyfm_cYFZnKpqrGlaWJu-34" value="" style="endArrow=classic;html=1;rounded=0;exitX=0.5;exitY=1;exitDx=0;exitDy=0;entryX=0.5;entryY=0;entryDx=0;entryDy=0;" edge="1" parent="1" source="Kyfm_cYFZnKpqrGlaWJu-22" target="Kyfm_cYFZnKpqrGlaWJu-26">
          <mxGeometry width="50" height="50" relative="1" as="geometry">
            <mxPoint x="220" y="330" as="sourcePoint" />
            <mxPoint x="53" y="400" as="targetPoint" />
          </mxGeometry>
        </mxCell>
        <mxCell id="Kyfm_cYFZnKpqrGlaWJu-39" value="Jacqueline Ombimah" style="whiteSpace=wrap;strokeWidth=2;" vertex="1" parent="1">
          <mxGeometry x="1340" y="330" width="75" height="44" as="geometry" />
        </mxCell>
        <mxCell id="Kyfm_cYFZnKpqrGlaWJu-46" value="" style="endArrow=classic;html=1;rounded=0;exitX=0.5;exitY=1;exitDx=0;exitDy=0;entryX=0.5;entryY=0;entryDx=0;entryDy=0;" edge="1" parent="1" source="Kyfm_cYFZnKpqrGlaWJu-26" target="Kyfm_cYFZnKpqrGlaWJu-49">
          <mxGeometry width="50" height="50" relative="1" as="geometry">
            <mxPoint x="460" y="390" as="sourcePoint" />
            <mxPoint x="58" y="510" as="targetPoint" />
          </mxGeometry>
        </mxCell>
        <mxCell id="Kyfm_cYFZnKpqrGlaWJu-47" value="Ashley Otonde" style="whiteSpace=wrap;strokeWidth=2;" vertex="1" parent="1">
          <mxGeometry x="40" y="330" width="75" height="44" as="geometry" />
        </mxCell>
        <mxCell id="Kyfm_cYFZnKpqrGlaWJu-49" value="Ashley Otonde" style="whiteSpace=wrap;strokeWidth=2;" vertex="1" parent="1">
          <mxGeometry x="-870" y="454" width="75" height="44" as="geometry" />
        </mxCell>
        <mxCell id="Kyfm_cYFZnKpqrGlaWJu-50" value="Wesley Otonde" style="whiteSpace=wrap;strokeWidth=2;" vertex="1" parent="1">
          <mxGeometry x="-955" y="454" width="75" height="44" as="geometry" />
        </mxCell>
        <mxCell id="Kyfm_cYFZnKpqrGlaWJu-52" value="Jabulani" style="whiteSpace=wrap;strokeWidth=2;" vertex="1" parent="1">
          <mxGeometry x="-990" y="600" width="75" height="44" as="geometry" />
        </mxCell>
        <mxCell id="Kyfm_cYFZnKpqrGlaWJu-53" value="" style="endArrow=classic;html=1;rounded=0;entryX=0.5;entryY=0;entryDx=0;entryDy=0;exitX=0.5;exitY=1;exitDx=0;exitDy=0;" edge="1" parent="1" source="Kyfm_cYFZnKpqrGlaWJu-50" target="Kyfm_cYFZnKpqrGlaWJu-52">
          <mxGeometry width="50" height="50" relative="1" as="geometry">
            <mxPoint x="149" y="650" as="sourcePoint" />
            <mxPoint x="199" y="600" as="targetPoint" />
          </mxGeometry>
        </mxCell>
        <mxCell id="Kyfm_cYFZnKpqrGlaWJu-56" value="Quinter Otonde" style="whiteSpace=wrap;strokeWidth=2;" vertex="1" parent="1">
          <mxGeometry x="-1040" y="454" width="75" height="44" as="geometry" />
        </mxCell>
        <mxCell id="Kyfm_cYFZnKpqrGlaWJu-59" value="" style="endArrow=classic;html=1;rounded=0;entryX=0.5;entryY=0;entryDx=0;entryDy=0;exitX=0.5;exitY=1;exitDx=0;exitDy=0;" edge="1" parent="1" source="Kyfm_cYFZnKpqrGlaWJu-22" target="Kyfm_cYFZnKpqrGlaWJu-27">
          <mxGeometry width="50" height="50" relative="1" as="geometry">
            <mxPoint x="-127.5" y="370" as="sourcePoint" />
            <mxPoint x="-77.5" y="320" as="targetPoint" />
          </mxGeometry>
        </mxCell>
        <mxCell id="Kyfm_cYFZnKpqrGlaWJu-61" value="" style="endArrow=classic;html=1;rounded=0;entryX=0.5;entryY=0;entryDx=0;entryDy=0;exitX=0.5;exitY=1;exitDx=0;exitDy=0;" edge="1" parent="1" source="Kyfm_cYFZnKpqrGlaWJu-22" target="Kyfm_cYFZnKpqrGlaWJu-28">
          <mxGeometry width="50" height="50" relative="1" as="geometry">
            <mxPoint x="-92" y="280" as="sourcePoint" />
            <mxPoint x="-122" y="450" as="targetPoint" />
          </mxGeometry>
        </mxCell>
        <mxCell id="Kyfm_cYFZnKpqrGlaWJu-65" value="" style="endArrow=classic;html=1;rounded=0;entryX=0.5;entryY=0;entryDx=0;entryDy=0;exitX=0.5;exitY=1;exitDx=0;exitDy=0;" edge="1" parent="1" source="Kyfm_cYFZnKpqrGlaWJu-22" target="Kyfm_cYFZnKpqrGlaWJu-31">
          <mxGeometry width="50" height="50" relative="1" as="geometry">
            <mxPoint x="-65" y="248" as="sourcePoint" />
            <mxPoint x="110" y="240" as="targetPoint" />
          </mxGeometry>
        </mxCell>
        <mxCell id="Kyfm_cYFZnKpqrGlaWJu-66" value="" style="endArrow=classic;html=1;rounded=0;entryX=0.5;entryY=0;entryDx=0;entryDy=0;exitX=0.5;exitY=1;exitDx=0;exitDy=0;" edge="1" parent="1" source="Kyfm_cYFZnKpqrGlaWJu-22" target="Kyfm_cYFZnKpqrGlaWJu-47">
          <mxGeometry width="50" height="50" relative="1" as="geometry">
            <mxPoint x="60" y="290" as="sourcePoint" />
            <mxPoint x="110" y="240" as="targetPoint" />
          </mxGeometry>
        </mxCell>
        <mxCell id="Kyfm_cYFZnKpqrGlaWJu-67" value="" style="endArrow=classic;html=1;rounded=0;entryX=0.5;entryY=0;entryDx=0;entryDy=0;exitX=0.5;exitY=1;exitDx=0;exitDy=0;" edge="1" parent="1" source="Kyfm_cYFZnKpqrGlaWJu-22" target="Kyfm_cYFZnKpqrGlaWJu-30">
          <mxGeometry width="50" height="50" relative="1" as="geometry">
            <mxPoint x="60" y="290" as="sourcePoint" />
            <mxPoint x="110" y="240" as="targetPoint" />
          </mxGeometry>
        </mxCell>
        <mxCell id="Kyfm_cYFZnKpqrGlaWJu-68" style="edgeStyle=orthogonalEdgeStyle;rounded=0;orthogonalLoop=1;jettySize=auto;html=1;exitX=0.25;exitY=1;exitDx=0;exitDy=0;entryX=0;entryY=0.75;entryDx=0;entryDy=0;" edge="1" parent="1" source="Kyfm_cYFZnKpqrGlaWJu-28" target="Kyfm_cYFZnKpqrGlaWJu-28">
          <mxGeometry relative="1" as="geometry" />
        </mxCell>
        <mxCell id="Kyfm_cYFZnKpqrGlaWJu-69" value="" style="endArrow=classic;html=1;rounded=0;entryX=0.5;entryY=0;entryDx=0;entryDy=0;exitX=0.5;exitY=1;exitDx=0;exitDy=0;" edge="1" parent="1" source="Kyfm_cYFZnKpqrGlaWJu-22" target="Kyfm_cYFZnKpqrGlaWJu-32">
          <mxGeometry width="50" height="50" relative="1" as="geometry">
            <mxPoint x="-92" y="280" as="sourcePoint" />
            <mxPoint x="568" y="340" as="targetPoint" />
          </mxGeometry>
        </mxCell>
        <mxCell id="Kyfm_cYFZnKpqrGlaWJu-70" value="" style="endArrow=classic;html=1;rounded=0;entryX=0.5;entryY=0;entryDx=0;entryDy=0;exitX=0.5;exitY=1;exitDx=0;exitDy=0;" edge="1" parent="1" source="Kyfm_cYFZnKpqrGlaWJu-22" target="Kyfm_cYFZnKpqrGlaWJu-33">
          <mxGeometry width="50" height="50" relative="1" as="geometry">
            <mxPoint x="690" y="400" as="sourcePoint" />
            <mxPoint x="740" y="350" as="targetPoint" />
          </mxGeometry>
        </mxCell>
        <mxCell id="Kyfm_cYFZnKpqrGlaWJu-71" value="" style="endArrow=classic;html=1;rounded=0;entryX=0.5;entryY=0;entryDx=0;entryDy=0;exitX=0.5;exitY=1;exitDx=0;exitDy=0;" edge="1" parent="1" source="Kyfm_cYFZnKpqrGlaWJu-22" target="Kyfm_cYFZnKpqrGlaWJu-39">
          <mxGeometry width="50" height="50" relative="1" as="geometry">
            <mxPoint x="-70" y="480" as="sourcePoint" />
            <mxPoint x="740" y="350" as="targetPoint" />
          </mxGeometry>
        </mxCell>
        <mxCell id="Kyfm_cYFZnKpqrGlaWJu-72" value="" style="endArrow=classic;html=1;rounded=0;exitX=0.5;exitY=1;exitDx=0;exitDy=0;entryX=0.5;entryY=0;entryDx=0;entryDy=0;" edge="1" parent="1" source="Kyfm_cYFZnKpqrGlaWJu-26" target="Kyfm_cYFZnKpqrGlaWJu-50">
          <mxGeometry width="50" height="50" relative="1" as="geometry">
            <mxPoint x="-460" y="620" as="sourcePoint" />
            <mxPoint x="-410" y="570" as="targetPoint" />
          </mxGeometry>
        </mxCell>
        <mxCell id="Kyfm_cYFZnKpqrGlaWJu-73" value="" style="endArrow=classic;html=1;rounded=0;exitX=0.5;exitY=1;exitDx=0;exitDy=0;entryX=0.5;entryY=0;entryDx=0;entryDy=0;" edge="1" parent="1" source="Kyfm_cYFZnKpqrGlaWJu-26" target="Kyfm_cYFZnKpqrGlaWJu-56">
          <mxGeometry width="50" height="50" relative="1" as="geometry">
            <mxPoint x="-460" y="620" as="sourcePoint" />
            <mxPoint x="-410" y="570" as="targetPoint" />
          </mxGeometry>
        </mxCell>
        <mxCell id="Kyfm_cYFZnKpqrGlaWJu-76" value="" style="endArrow=classic;html=1;rounded=0;exitX=0.5;exitY=1;exitDx=0;exitDy=0;entryX=0.5;entryY=0;entryDx=0;entryDy=0;" edge="1" parent="1" source="Kyfm_cYFZnKpqrGlaWJu-56" target="Kyfm_cYFZnKpqrGlaWJu-77">
          <mxGeometry width="50" height="50" relative="1" as="geometry">
            <mxPoint x="-1000" y="670" as="sourcePoint" />
            <mxPoint x="-1002" y="600" as="targetPoint" />
          </mxGeometry>
        </mxCell>
        <mxCell id="Kyfm_cYFZnKpqrGlaWJu-77" value="Trevor Baraka" style="whiteSpace=wrap;strokeWidth=2;" vertex="1" parent="1">
          <mxGeometry x="-1080" y="600" width="75" height="44" as="geometry" />
        </mxCell>
        <mxCell id="Kyfm_cYFZnKpqrGlaWJu-78" value="" style="endArrow=classic;html=1;rounded=0;exitX=0.5;exitY=1;exitDx=0;exitDy=0;entryX=0.5;entryY=0;entryDx=0;entryDy=0;" edge="1" parent="1" source="Kyfm_cYFZnKpqrGlaWJu-27" target="Kyfm_cYFZnKpqrGlaWJu-79">
          <mxGeometry width="50" height="50" relative="1" as="geometry">
            <mxPoint x="-450" y="620" as="sourcePoint" />
            <mxPoint x="-442" y="440" as="targetPoint" />
          </mxGeometry>
        </mxCell>
        <mxCell id="Kyfm_cYFZnKpqrGlaWJu-79" value="Neechi Ombimah" style="whiteSpace=wrap;strokeWidth=2;" vertex="1" parent="1">
          <mxGeometry x="-480" y="440" width="75" height="44" as="geometry" />
        </mxCell>
        <mxCell id="Kyfm_cYFZnKpqrGlaWJu-80" value="" style="endArrow=classic;html=1;rounded=0;entryX=0.5;entryY=0;entryDx=0;entryDy=0;exitX=0.5;exitY=1;exitDx=0;exitDy=0;" edge="1" parent="1" target="Kyfm_cYFZnKpqrGlaWJu-81" source="Kyfm_cYFZnKpqrGlaWJu-28">
          <mxGeometry width="50" height="50" relative="1" as="geometry">
            <mxPoint x="-200" y="400" as="sourcePoint" />
            <mxPoint x="-202" y="440" as="targetPoint" />
          </mxGeometry>
        </mxCell>
        <mxCell id="Kyfm_cYFZnKpqrGlaWJu-81" value="Adam Otieno" style="whiteSpace=wrap;strokeWidth=2;" vertex="1" parent="1">
          <mxGeometry x="-315" y="440" width="75" height="44" as="geometry" />
        </mxCell>
        <mxCell id="Kyfm_cYFZnKpqrGlaWJu-82" value="Nicole Otieno" style="whiteSpace=wrap;strokeWidth=2;" vertex="1" parent="1">
          <mxGeometry x="-165" y="440" width="75" height="44" as="geometry" />
        </mxCell>
        <mxCell id="Kyfm_cYFZnKpqrGlaWJu-83" value="" style="endArrow=classic;html=1;rounded=0;exitX=0.5;exitY=1;exitDx=0;exitDy=0;entryX=0.5;entryY=0;entryDx=0;entryDy=0;" edge="1" parent="1" source="Kyfm_cYFZnKpqrGlaWJu-28" target="Kyfm_cYFZnKpqrGlaWJu-82">
          <mxGeometry width="50" height="50" relative="1" as="geometry">
            <mxPoint x="-170" y="620" as="sourcePoint" />
            <mxPoint x="-120" y="570" as="targetPoint" />
          </mxGeometry>
        </mxCell>
        <mxCell id="Kyfm_cYFZnKpqrGlaWJu-84" value="" style="endArrow=classic;html=1;rounded=0;exitX=0.5;exitY=1;exitDx=0;exitDy=0;" edge="1" parent="1" source="Kyfm_cYFZnKpqrGlaWJu-30">
          <mxGeometry width="50" height="50" relative="1" as="geometry">
            <mxPoint x="260" y="620" as="sourcePoint" />
            <mxPoint x="318" y="440" as="targetPoint" />
          </mxGeometry>
        </mxCell>
        <mxCell id="Kyfm_cYFZnKpqrGlaWJu-85" value="Nereah Totty" style="whiteSpace=wrap;strokeWidth=2;" vertex="1" parent="1">
          <mxGeometry x="280" y="440" width="75" height="44" as="geometry" />
        </mxCell>
        <mxCell id="Kyfm_cYFZnKpqrGlaWJu-86" value="Leo Joe Gem" style="whiteSpace=wrap;strokeWidth=2;" vertex="1" parent="1">
          <mxGeometry x="400" y="440" width="75" height="44" as="geometry" />
        </mxCell>
        <mxCell id="Kyfm_cYFZnKpqrGlaWJu-87" value="Eve Elsie Jaber" style="whiteSpace=wrap;strokeWidth=2;" vertex="1" parent="1">
          <mxGeometry x="520" y="440" width="75" height="44" as="geometry" />
        </mxCell>
        <mxCell id="Kyfm_cYFZnKpqrGlaWJu-88" value="Arthur Hawi Junior" style="whiteSpace=wrap;strokeWidth=2;" vertex="1" parent="1">
          <mxGeometry x="640" y="440" width="75" height="44" as="geometry" />
        </mxCell>
        <mxCell id="Kyfm_cYFZnKpqrGlaWJu-89" value="" style="endArrow=classic;html=1;rounded=0;exitX=0.5;exitY=1;exitDx=0;exitDy=0;entryX=0.5;entryY=0;entryDx=0;entryDy=0;" edge="1" parent="1" source="Kyfm_cYFZnKpqrGlaWJu-31" target="Kyfm_cYFZnKpqrGlaWJu-86">
          <mxGeometry width="50" height="50" relative="1" as="geometry">
            <mxPoint x="280" y="620" as="sourcePoint" />
            <mxPoint x="330" y="570" as="targetPoint" />
          </mxGeometry>
        </mxCell>
        <mxCell id="Kyfm_cYFZnKpqrGlaWJu-90" value="" style="endArrow=classic;html=1;rounded=0;exitX=0.5;exitY=1;exitDx=0;exitDy=0;entryX=0.5;entryY=0;entryDx=0;entryDy=0;" edge="1" parent="1" source="Kyfm_cYFZnKpqrGlaWJu-31" target="Kyfm_cYFZnKpqrGlaWJu-87">
          <mxGeometry width="50" height="50" relative="1" as="geometry">
            <mxPoint x="290" y="630" as="sourcePoint" />
            <mxPoint x="340" y="580" as="targetPoint" />
          </mxGeometry>
        </mxCell>
        <mxCell id="Kyfm_cYFZnKpqrGlaWJu-91" value="" style="endArrow=classic;html=1;rounded=0;exitX=0.5;exitY=1;exitDx=0;exitDy=0;entryX=0.5;entryY=0;entryDx=0;entryDy=0;" edge="1" parent="1" source="Kyfm_cYFZnKpqrGlaWJu-31" target="Kyfm_cYFZnKpqrGlaWJu-88">
          <mxGeometry width="50" height="50" relative="1" as="geometry">
            <mxPoint x="300" y="640" as="sourcePoint" />
            <mxPoint x="350" y="590" as="targetPoint" />
          </mxGeometry>
        </mxCell>
        <mxCell id="Kyfm_cYFZnKpqrGlaWJu-92" value="" style="endArrow=classic;html=1;rounded=0;exitX=0.5;exitY=1;exitDx=0;exitDy=0;entryX=0.5;entryY=0;entryDx=0;entryDy=0;" edge="1" parent="1" source="Kyfm_cYFZnKpqrGlaWJu-32" target="Kyfm_cYFZnKpqrGlaWJu-93">
          <mxGeometry width="50" height="50" relative="1" as="geometry">
            <mxPoint x="730" y="620" as="sourcePoint" />
            <mxPoint x="868" y="440" as="targetPoint" />
          </mxGeometry>
        </mxCell>
        <mxCell id="Kyfm_cYFZnKpqrGlaWJu-93" value="Lesly Ombimah" style="whiteSpace=wrap;strokeWidth=2;" vertex="1" parent="1">
          <mxGeometry x="755" y="440" width="75" height="44" as="geometry" />
        </mxCell>
        <mxCell id="Kyfm_cYFZnKpqrGlaWJu-94" value="Latisha Ombimah" style="whiteSpace=wrap;strokeWidth=2;" vertex="1" parent="1">
          <mxGeometry x="905" y="440" width="75" height="44" as="geometry" />
        </mxCell>
        <mxCell id="Kyfm_cYFZnKpqrGlaWJu-95" value="" style="endArrow=classic;html=1;rounded=0;exitX=0.5;exitY=1;exitDx=0;exitDy=0;entryX=0.5;entryY=0;entryDx=0;entryDy=0;" edge="1" parent="1" source="Kyfm_cYFZnKpqrGlaWJu-32" target="Kyfm_cYFZnKpqrGlaWJu-94">
          <mxGeometry width="50" height="50" relative="1" as="geometry">
            <mxPoint x="878" y="384" as="sourcePoint" />
            <mxPoint x="803" y="450" as="targetPoint" />
          </mxGeometry>
        </mxCell>
        <mxCell id="Kyfm_cYFZnKpqrGlaWJu-96" value="" style="endArrow=classic;html=1;rounded=0;exitX=0.5;exitY=1;exitDx=0;exitDy=0;entryX=0.5;entryY=0;entryDx=0;entryDy=0;" edge="1" parent="1" source="Kyfm_cYFZnKpqrGlaWJu-33" target="Kyfm_cYFZnKpqrGlaWJu-98">
          <mxGeometry width="50" height="50" relative="1" as="geometry">
            <mxPoint x="940" y="620" as="sourcePoint" />
            <mxPoint x="1070" y="420" as="targetPoint" />
          </mxGeometry>
        </mxCell>
        <mxCell id="Kyfm_cYFZnKpqrGlaWJu-97" value="" style="endArrow=classic;html=1;rounded=0;exitX=0.5;exitY=1;exitDx=0;exitDy=0;entryX=0.5;entryY=0;entryDx=0;entryDy=0;" edge="1" parent="1" source="Kyfm_cYFZnKpqrGlaWJu-33" target="Kyfm_cYFZnKpqrGlaWJu-99">
          <mxGeometry width="50" height="50" relative="1" as="geometry">
            <mxPoint x="1128" y="384" as="sourcePoint" />
            <mxPoint x="1200" y="430" as="targetPoint" />
          </mxGeometry>
        </mxCell>
        <mxCell id="Kyfm_cYFZnKpqrGlaWJu-98" value="Dali Ombimah" style="whiteSpace=wrap;strokeWidth=2;" vertex="1" parent="1">
          <mxGeometry x="1005" y="440" width="75" height="44" as="geometry" />
        </mxCell>
        <mxCell id="Kyfm_cYFZnKpqrGlaWJu-99" value="Cathy Ombimah" style="whiteSpace=wrap;strokeWidth=2;" vertex="1" parent="1">
          <mxGeometry x="1155" y="440" width="75" height="44" as="geometry" />
        </mxCell>
        <mxCell id="Kyfm_cYFZnKpqrGlaWJu-100" value="Nereah Ombimah" style="whiteSpace=wrap;strokeWidth=2;" vertex="1" parent="1">
          <mxGeometry x="1415" y="440" width="75" height="44" as="geometry" />
        </mxCell>
        <mxCell id="Kyfm_cYFZnKpqrGlaWJu-101" value="Xavier Ombimah" style="whiteSpace=wrap;strokeWidth=2;" vertex="1" parent="1">
          <mxGeometry x="1265" y="440" width="75" height="44" as="geometry" />
        </mxCell>
        <mxCell id="Kyfm_cYFZnKpqrGlaWJu-102" value="" style="endArrow=classic;html=1;rounded=0;exitX=0.5;exitY=1;exitDx=0;exitDy=0;entryX=0.5;entryY=0;entryDx=0;entryDy=0;" edge="1" parent="1" source="Kyfm_cYFZnKpqrGlaWJu-39" target="Kyfm_cYFZnKpqrGlaWJu-101">
          <mxGeometry width="50" height="50" relative="1" as="geometry">
            <mxPoint x="940" y="620" as="sourcePoint" />
            <mxPoint x="990" y="570" as="targetPoint" />
          </mxGeometry>
        </mxCell>
        <mxCell id="Kyfm_cYFZnKpqrGlaWJu-103" value="" style="endArrow=classic;html=1;rounded=0;exitX=0.5;exitY=1;exitDx=0;exitDy=0;entryX=0.5;entryY=0;entryDx=0;entryDy=0;" edge="1" parent="1" source="Kyfm_cYFZnKpqrGlaWJu-39" target="Kyfm_cYFZnKpqrGlaWJu-100">
          <mxGeometry width="50" height="50" relative="1" as="geometry">
            <mxPoint x="940" y="620" as="sourcePoint" />
            <mxPoint x="990" y="570" as="targetPoint" />
          </mxGeometry>
        </mxCell>
        <mxCell id="Kyfm_cYFZnKpqrGlaWJu-104" value="Francis Obonyo" style="whiteSpace=wrap;strokeWidth=2;" vertex="1" parent="1">
          <mxGeometry x="2880" y="430" width="75" height="44" as="geometry" />
        </mxCell>
        <mxCell id="Kyfm_cYFZnKpqrGlaWJu-105" value="Francis Obonyo" style="whiteSpace=wrap;strokeWidth=2;" vertex="1" parent="1">
          <mxGeometry x="2640" y="430" width="75" height="44" as="geometry" />
        </mxCell>
        <mxCell id="Kyfm_cYFZnKpqrGlaWJu-106" value="Thomas Obonyo" style="whiteSpace=wrap;strokeWidth=2;" vertex="1" parent="1">
          <mxGeometry x="2160" y="430" width="75" height="44" as="geometry" />
        </mxCell>
        <mxCell id="Kyfm_cYFZnKpqrGlaWJu-107" value="Francis Obonyo" style="whiteSpace=wrap;strokeWidth=2;" vertex="1" parent="1">
          <mxGeometry x="3120" y="430" width="75" height="44" as="geometry" />
        </mxCell>
        <mxCell id="Kyfm_cYFZnKpqrGlaWJu-108" value="Agwings Obonyo" style="whiteSpace=wrap;strokeWidth=2;" vertex="1" parent="1">
          <mxGeometry x="2400" y="430" width="75" height="44" as="geometry" />
        </mxCell>
        <mxCell id="Kyfm_cYFZnKpqrGlaWJu-109" value="Francis Obonyo" style="whiteSpace=wrap;strokeWidth=2;" vertex="1" parent="1">
          <mxGeometry x="3600" y="430" width="75" height="44" as="geometry" />
        </mxCell>
        <mxCell id="Kyfm_cYFZnKpqrGlaWJu-110" value="Francis Obonyo" style="whiteSpace=wrap;strokeWidth=2;" vertex="1" parent="1">
          <mxGeometry x="3840" y="430" width="75" height="44" as="geometry" />
        </mxCell>
        <mxCell id="Kyfm_cYFZnKpqrGlaWJu-111" value="Francis Obonyo" style="whiteSpace=wrap;strokeWidth=2;" vertex="1" parent="1">
          <mxGeometry x="3360" y="430" width="75" height="44" as="geometry" />
        </mxCell>
        <mxCell id="Kyfm_cYFZnKpqrGlaWJu-112" value="" style="endArrow=classic;html=1;rounded=0;exitX=0.5;exitY=1;exitDx=0;exitDy=0;entryX=0.5;entryY=0;entryDx=0;entryDy=0;" edge="1" parent="1" source="6" target="Kyfm_cYFZnKpqrGlaWJu-106">
          <mxGeometry width="50" height="50" relative="1" as="geometry">
            <mxPoint x="2200" y="180" as="sourcePoint" />
            <mxPoint x="2250" y="130" as="targetPoint" />
          </mxGeometry>
        </mxCell>
        <mxCell id="Kyfm_cYFZnKpqrGlaWJu-113" value="" style="endArrow=classic;html=1;rounded=0;exitX=0.5;exitY=1;exitDx=0;exitDy=0;entryX=0.5;entryY=0;entryDx=0;entryDy=0;" edge="1" parent="1" source="6" target="Kyfm_cYFZnKpqrGlaWJu-108">
          <mxGeometry width="50" height="50" relative="1" as="geometry">
            <mxPoint x="2200" y="180" as="sourcePoint" />
            <mxPoint x="2250" y="130" as="targetPoint" />
          </mxGeometry>
        </mxCell>
        <mxCell id="Kyfm_cYFZnKpqrGlaWJu-114" value="" style="endArrow=classic;html=1;rounded=0;exitX=0.5;exitY=1;exitDx=0;exitDy=0;entryX=0.5;entryY=0;entryDx=0;entryDy=0;" edge="1" parent="1" source="6" target="Kyfm_cYFZnKpqrGlaWJu-105">
          <mxGeometry width="50" height="50" relative="1" as="geometry">
            <mxPoint x="2200" y="180" as="sourcePoint" />
            <mxPoint x="2250" y="130" as="targetPoint" />
          </mxGeometry>
        </mxCell>
        <mxCell id="Kyfm_cYFZnKpqrGlaWJu-115" value="" style="endArrow=classic;html=1;rounded=0;exitX=0.5;exitY=1;exitDx=0;exitDy=0;entryX=0.5;entryY=0;entryDx=0;entryDy=0;" edge="1" parent="1" source="6" target="Kyfm_cYFZnKpqrGlaWJu-104">
          <mxGeometry width="50" height="50" relative="1" as="geometry">
            <mxPoint x="2200" y="180" as="sourcePoint" />
            <mxPoint x="3010" y="420" as="targetPoint" />
          </mxGeometry>
        </mxCell>
        <mxCell id="Kyfm_cYFZnKpqrGlaWJu-116" value="" style="endArrow=classic;html=1;rounded=0;exitX=0.5;exitY=1;exitDx=0;exitDy=0;entryX=0.5;entryY=0;entryDx=0;entryDy=0;" edge="1" parent="1" source="6" target="Kyfm_cYFZnKpqrGlaWJu-107">
          <mxGeometry width="50" height="50" relative="1" as="geometry">
            <mxPoint x="2200" y="180" as="sourcePoint" />
            <mxPoint x="2250" y="130" as="targetPoint" />
          </mxGeometry>
        </mxCell>
        <mxCell id="Kyfm_cYFZnKpqrGlaWJu-117" value="" style="endArrow=classic;html=1;rounded=0;exitX=0.5;exitY=1;exitDx=0;exitDy=0;entryX=0.5;entryY=0;entryDx=0;entryDy=0;" edge="1" parent="1" source="6" target="Kyfm_cYFZnKpqrGlaWJu-111">
          <mxGeometry width="50" height="50" relative="1" as="geometry">
            <mxPoint x="2200" y="180" as="sourcePoint" />
            <mxPoint x="2250" y="130" as="targetPoint" />
          </mxGeometry>
        </mxCell>
        <mxCell id="Kyfm_cYFZnKpqrGlaWJu-118" value="" style="endArrow=classic;html=1;rounded=0;exitX=0.5;exitY=1;exitDx=0;exitDy=0;entryX=0.5;entryY=0;entryDx=0;entryDy=0;" edge="1" parent="1" source="6" target="Kyfm_cYFZnKpqrGlaWJu-109">
          <mxGeometry width="50" height="50" relative="1" as="geometry">
            <mxPoint x="3080" y="180" as="sourcePoint" />
            <mxPoint x="3130" y="130" as="targetPoint" />
          </mxGeometry>
        </mxCell>
        <mxCell id="Kyfm_cYFZnKpqrGlaWJu-119" value="" style="endArrow=classic;html=1;rounded=0;exitX=0.5;exitY=1;exitDx=0;exitDy=0;entryX=0.5;entryY=0;entryDx=0;entryDy=0;" edge="1" parent="1" source="6" target="Kyfm_cYFZnKpqrGlaWJu-110">
          <mxGeometry width="50" height="50" relative="1" as="geometry">
            <mxPoint x="3080" y="180" as="sourcePoint" />
            <mxPoint x="3130" y="130" as="targetPoint" />
          </mxGeometry>
        </mxCell>
        <mxCell id="Kyfm_cYFZnKpqrGlaWJu-121" value="" style="endArrow=classic;html=1;rounded=0;exitX=0.5;exitY=1;exitDx=0;exitDy=0;entryX=0.5;entryY=0;entryDx=0;entryDy=0;" edge="1" parent="1" source="2" target="3">
          <mxGeometry width="50" height="50" relative="1" as="geometry">
            <mxPoint x="1550" y="290" as="sourcePoint" />
            <mxPoint x="1600" y="240" as="targetPoint" />
          </mxGeometry>
        </mxCell>
        <mxCell id="Kyfm_cYFZnKpqrGlaWJu-123" value="Roslidia" style="whiteSpace=wrap;strokeWidth=2;" vertex="1" parent="1">
          <mxGeometry x="9020" y="-1740" width="90" height="49" as="geometry" />
        </mxCell>
        <mxCell id="Kyfm_cYFZnKpqrGlaWJu-124" value="" style="endArrow=classic;startArrow=classic;html=1;rounded=0;entryX=0;entryY=0.5;entryDx=0;entryDy=0;exitX=1;exitY=0.5;exitDx=0;exitDy=0;" edge="1" parent="1" source="3" target="Kyfm_cYFZnKpqrGlaWJu-123">
          <mxGeometry width="50" height="50" relative="1" as="geometry">
            <mxPoint x="1770" y="-710" as="sourcePoint" />
            <mxPoint x="1820" y="-760" as="targetPoint" />
          </mxGeometry>
        </mxCell>
        <mxCell id="Kyfm_cYFZnKpqrGlaWJu-128" value="Lorna" style="whiteSpace=wrap;strokeWidth=2;" vertex="1" parent="1">
          <mxGeometry x="8910" y="-1480" width="90" height="49" as="geometry" />
        </mxCell>
        <mxCell id="Kyfm_cYFZnKpqrGlaWJu-129" value="Bernadette" style="whiteSpace=wrap;strokeWidth=2;" vertex="1" parent="1">
          <mxGeometry x="9540" y="-1480" width="90" height="49" as="geometry" />
        </mxCell>
        <mxCell id="Kyfm_cYFZnKpqrGlaWJu-130" value="" style="whiteSpace=wrap;strokeWidth=2;fillColor=#570FFF;" vertex="1" parent="1">
          <mxGeometry x="9924" y="-1480" width="90" height="49" as="geometry" />
        </mxCell>
        <mxCell id="Kyfm_cYFZnKpqrGlaWJu-131" value="Joseph" style="whiteSpace=wrap;strokeWidth=2;" vertex="1" parent="1">
          <mxGeometry x="8310" y="-1480" width="90" height="49" as="geometry" />
        </mxCell>
        <mxCell id="Kyfm_cYFZnKpqrGlaWJu-132" value="" style="endArrow=classic;html=1;rounded=0;exitX=0.5;exitY=1;exitDx=0;exitDy=0;entryX=0.5;entryY=0;entryDx=0;entryDy=0;" edge="1" parent="1" source="Kyfm_cYFZnKpqrGlaWJu-123" target="Kyfm_cYFZnKpqrGlaWJu-130">
          <mxGeometry width="50" height="50" relative="1" as="geometry">
            <mxPoint x="9360" y="-1310" as="sourcePoint" />
            <mxPoint x="9410" y="-1360" as="targetPoint" />
          </mxGeometry>
        </mxCell>
        <mxCell id="Kyfm_cYFZnKpqrGlaWJu-133" value="" style="endArrow=classic;html=1;rounded=0;entryX=0.5;entryY=0;entryDx=0;entryDy=0;exitX=0.5;exitY=1;exitDx=0;exitDy=0;" edge="1" parent="1" source="Kyfm_cYFZnKpqrGlaWJu-123" target="Kyfm_cYFZnKpqrGlaWJu-128">
          <mxGeometry width="50" height="50" relative="1" as="geometry">
            <mxPoint x="9075" y="-1620" as="sourcePoint" />
            <mxPoint x="9566" y="-1470" as="targetPoint" />
          </mxGeometry>
        </mxCell>
        <mxCell id="Kyfm_cYFZnKpqrGlaWJu-134" value="" style="endArrow=classic;html=1;rounded=0;exitX=0.5;exitY=1;exitDx=0;exitDy=0;entryX=0.5;entryY=0;entryDx=0;entryDy=0;" edge="1" parent="1" source="Kyfm_cYFZnKpqrGlaWJu-123" target="Kyfm_cYFZnKpqrGlaWJu-131">
          <mxGeometry width="50" height="50" relative="1" as="geometry">
            <mxPoint x="9360" y="-1310" as="sourcePoint" />
            <mxPoint x="9410" y="-1360" as="targetPoint" />
          </mxGeometry>
        </mxCell>
        <mxCell id="Kyfm_cYFZnKpqrGlaWJu-135" value="" style="endArrow=classic;html=1;rounded=0;exitX=0.5;exitY=1;exitDx=0;exitDy=0;entryX=0.5;entryY=0;entryDx=0;entryDy=0;" edge="1" parent="1" source="Kyfm_cYFZnKpqrGlaWJu-123" target="Kyfm_cYFZnKpqrGlaWJu-129">
          <mxGeometry width="50" height="50" relative="1" as="geometry">
            <mxPoint x="9360" y="-1310" as="sourcePoint" />
            <mxPoint x="9410" y="-1360" as="targetPoint" />
          </mxGeometry>
        </mxCell>
        <mxCell id="Kyfm_cYFZnKpqrGlaWJu-136" value="William Ojwang" style="whiteSpace=wrap;strokeWidth=2;" vertex="1" parent="1">
          <mxGeometry x="8710" y="-1350" width="90" height="49" as="geometry" />
        </mxCell>
        <mxCell id="Kyfm_cYFZnKpqrGlaWJu-137" value="Jack Odawo" style="whiteSpace=wrap;strokeWidth=2;" vertex="1" parent="1">
          <mxGeometry x="8910" y="-1350" width="90" height="49" as="geometry" />
        </mxCell>
        <mxCell id="Kyfm_cYFZnKpqrGlaWJu-138" value="" style="whiteSpace=wrap;strokeWidth=2;fillColor=#8957FF;" vertex="1" parent="1">
          <mxGeometry x="9120" y="-1350" width="90" height="49" as="geometry" />
        </mxCell>
        <mxCell id="Kyfm_cYFZnKpqrGlaWJu-139" value="" style="endArrow=classic;html=1;rounded=0;exitX=0.5;exitY=1;exitDx=0;exitDy=0;entryX=0.5;entryY=0;entryDx=0;entryDy=0;" edge="1" parent="1" source="Kyfm_cYFZnKpqrGlaWJu-128" target="Kyfm_cYFZnKpqrGlaWJu-138">
          <mxGeometry width="50" height="50" relative="1" as="geometry">
            <mxPoint x="9150" y="-1420" as="sourcePoint" />
            <mxPoint x="9200" y="-1470" as="targetPoint" />
          </mxGeometry>
        </mxCell>
        <mxCell id="Kyfm_cYFZnKpqrGlaWJu-140" value="" style="endArrow=classic;html=1;rounded=0;exitX=0.5;exitY=1;exitDx=0;exitDy=0;entryX=0.5;entryY=0;entryDx=0;entryDy=0;" edge="1" parent="1" source="Kyfm_cYFZnKpqrGlaWJu-128" target="Kyfm_cYFZnKpqrGlaWJu-137">
          <mxGeometry width="50" height="50" relative="1" as="geometry">
            <mxPoint x="9150" y="-1420" as="sourcePoint" />
            <mxPoint x="9200" y="-1470" as="targetPoint" />
          </mxGeometry>
        </mxCell>
        <mxCell id="Kyfm_cYFZnKpqrGlaWJu-141" value="" style="endArrow=classic;html=1;rounded=0;exitX=0.5;exitY=1;exitDx=0;exitDy=0;entryX=0.5;entryY=0;entryDx=0;entryDy=0;" edge="1" parent="1" source="Kyfm_cYFZnKpqrGlaWJu-128" target="Kyfm_cYFZnKpqrGlaWJu-136">
          <mxGeometry width="50" height="50" relative="1" as="geometry">
            <mxPoint x="9150" y="-1420" as="sourcePoint" />
            <mxPoint x="9200" y="-1470" as="targetPoint" />
          </mxGeometry>
        </mxCell>
        <mxCell id="Kyfm_cYFZnKpqrGlaWJu-142" value="Andrea Onyango" style="whiteSpace=wrap;strokeWidth=2;" vertex="1" parent="1">
          <mxGeometry x="2610" y="-2150" width="89" height="49" as="geometry" />
        </mxCell>
        <mxCell id="Kyfm_cYFZnKpqrGlaWJu-143" value="Andrea Onyango" style="whiteSpace=wrap;strokeWidth=2;" vertex="1" parent="1">
          <mxGeometry x="2780" y="-2150" width="89" height="49" as="geometry" />
        </mxCell>
        <mxCell id="Kyfm_cYFZnKpqrGlaWJu-144" value="Andrea Onyango" style="whiteSpace=wrap;strokeWidth=2;" vertex="1" parent="1">
          <mxGeometry x="2930" y="-2150" width="89" height="49" as="geometry" />
        </mxCell>
        <mxCell id="Kyfm_cYFZnKpqrGlaWJu-145" value="Andrea Onyango" style="whiteSpace=wrap;strokeWidth=2;" vertex="1" parent="1">
          <mxGeometry x="3113" y="-2150" width="89" height="49" as="geometry" />
        </mxCell>
        <mxCell id="Kyfm_cYFZnKpqrGlaWJu-146" value="Oudo " style="whiteSpace=wrap;strokeWidth=2;" vertex="1" parent="1">
          <mxGeometry x="2475" y="-2387" width="89" height="49" as="geometry" />
        </mxCell>
        <mxCell id="Kyfm_cYFZnKpqrGlaWJu-147" value="" style="endArrow=classic;html=1;rounded=0;exitX=0.5;exitY=1;exitDx=0;exitDy=0;entryX=0.5;entryY=0;entryDx=0;entryDy=0;" edge="1" parent="1" source="Kyfm_cYFZnKpqrGlaWJu-146" target="2">
          <mxGeometry width="50" height="50" relative="1" as="geometry">
            <mxPoint x="2600" y="-2060" as="sourcePoint" />
            <mxPoint x="2650" y="-2110" as="targetPoint" />
          </mxGeometry>
        </mxCell>
        <mxCell id="Kyfm_cYFZnKpqrGlaWJu-148" value="Rafael Okinyi" style="whiteSpace=wrap;strokeWidth=2;" vertex="1" parent="1">
          <mxGeometry x="2590" y="-2387" width="89" height="49" as="geometry" />
        </mxCell>
        <mxCell id="Kyfm_cYFZnKpqrGlaWJu-149" value="Emmanuel Ombai" style="whiteSpace=wrap;strokeWidth=2;" vertex="1" parent="1">
          <mxGeometry x="2715" y="-2387" width="89" height="49" as="geometry" />
        </mxCell>
      </root>
    </mxGraphModel>
  </diagram>
</mxfile>
